/* XPM */
static char *_067929c865548cd908f2dbc7230f508y0fyoDB3YeurdM8B[] = {
/* columns rows colors chars-per-pixel */
"64 64 123 2 ",
"   c #121E2C",
".  c #15212F",
"X  c #172331",
"o  c #1A2633",
"O  c #1C2937",
"+  c #1E2B39",
"@  c #222E3C",
"#  c #24313E",
"$  c #263441",
"%  c #2A3543",
"&  c #2C3946",
"*  c #2E3C49",
"=  c #323E4C",
"-  c #34414E",
";  c #364351",
":  c #3A4654",
">  c #3C4956",
",  c #3E4B59",
"<  c #424E5C",
"1  c #44515F",
"2  c #465361",
"3  c #4A5664",
"4  c #4C5966",
"5  c #4E5B69",
"6  c #525E6C",
"7  c #4F616D",
"8  c #54616E",
"9  c #566371",
"0  c #5A6674",
"q  c #5C6976",
"w  c #5E6B79",
"e  c #606A76",
"r  c #616D7B",
"t  c #64717E",
"y  c #667381",
"u  c #6A7583",
"i  c #6C7986",
"p  c #6E7B89",
"a  c #707E8B",
"s  c #717D8B",
"d  c #717F8C",
"f  c #727E8C",
"g  c #737F8D",
"h  c #757E8D",
"j  c #727E8C",
"k  c #70808D",
"l  c #71818E",
"z  c #72828F",
"x  c #74808E",
"c  c #75818F",
"v  c #74818E",
"b  c #758390",
"n  c #768290",
"m  c #778391",
"M  c #748491",
"N  c #768491",
"B  c #758592",
"V  c #778794",
"C  c #768391",
"Z  c #788492",
"A  c #798593",
"S  c #788693",
"D  c #7B8793",
"F  c #7A8694",
"G  c #7B8795",
"H  c #7A8694",
"J  c #7A8A97",
"K  c #7C8896",
"L  c #7D8997",
"P  c #7C8996",
"I  c #7E8A98",
"U  c #7F8B99",
"Y  c #7D8D9A",
"T  c #7E8E9B",
"R  c #7E8B99",
"E  c #808C98",
"W  c #808C9A",
"Q  c #818D9B",
"!  c #828E9A",
"~  c #838F9B",
"^  c #828E9C",
"/  c #838F9D",
"(  c #818D9B",
")  c #80909D",
"_  c #81919E",
"`  c #84909E",
"'  c #85919F",
"]  c #87939F",
"[  c #84919E",
"{  c #8393A0",
"}  c #8692A0",
"|  c #8793A1",
" . c #8494A1",
".. c #8595A2",
"X. c #8696A3",
"o. c #8693A1",
"O. c #8995A1",
"+. c #8894A2",
"@. c #8995A3",
"#. c #8A96A4",
"$. c #8B97A5",
"%. c #8995A3",
"&. c #8C98A6",
"*. c #8D99A7",
"=. c #8D99A7",
"-. c #8E9AA8",
";. c #8F9BA9",
":. c #8E9AA8",
">. c #909CAA",
",. c #909EAB",
"<. c #939FAD",
"1. c #919DAB",
"2. c #94A0AE",
"3. c #95A1AF",
"4. c #97A3B1",
"5. c #96A2B0",
"6. c #98A4B2",
"7. c #99A5B3",
"8. c #9AA6B4",
"9. c #9BA7B5",
"0. c #9CA8B6",
"q. c #9DA9B7",
"w. c #A4B0BE",
/* pixels */
"5 8 9 5 < 6 3 9 9 9 s r r 8 5 1 ] ! #.0.9.7.<.4.4.3.} i r t p n L i n I I #.&.0.<.&.^ c s p 3 F y L F A g p c i p g y r w t t y ",
"9 8 0 0 0 3 1 1 r 6 # > - - % ; O.~ O.0.0.9.7.9.;.O.I A n L I ! F y g A c u c O.I ! } ] O.] 9 } } ^ n g g A A s i p t q n g A s ",
"p r 4 > 3 3 2 < 8 % X O & - & ; A ] $.4.4.9.<.&.>.O.] ! A I I F A r u 9 6 i s 4 u ] A L i 0 q 9 6 9 r p g s y 0 w t 0 n u F n u ",
"s i 0 0 r 3 3 4 - # & < ; # > ; ! ! O.>.<.3.0.#.#.&.} A F L F n g t & 5 5 6 ; : > ; : < 5 r 6 ] ^ L g i p s u i p u u t y u s s ",
"3 = @ @ O $ = % & & # 4 8 9 4 ; = > 5 8 8 9 9 ! I ^ ] I I F g F A ] } I c I n A L L F L L L g u n A L L i c s u u u u u u c s p ",
"w y p t t r 0 e u i > 8 8 u 4 r 1 3 9 9 6 9 r I O.} I n F I n ! g I I F F L c F F L I ^ I A F I A F A A r p s t r u s c p r t p ",
"y y y y y t w i 0 8 : 5 9 8 r y i 5 9 5 4 5 9 ! I L L F L F s g A n A L L ^ L c n A A n i F g A ! F A A F i p u y r i u g t p i ",
"w r t u u k u 9 2 3 : 3 3 5 y 5 r 6 3 2 2 2 4 r w 0 0 w t t w u p g c g s A c y t u p y n g g i n n L ! L t t t r q r r y g u F ",
"p p k k u Y s A s u 0 3 3 : ; > > < 3 9 0 9 w r y r r n i g } } ] ! } #.&.! n F p u g L n s 9 c i u y t r w y u r r t u r w i 5 ",
"p p p u t p N c i p g u q w 9 6 r 9 r t A L L O.L i p F g t c F n n c ! L L F g s i u u i n u 9 6 4 t u t i i i c q i i u y t t ",
"p p k p p J y u p F i u F p u c ] ] r 0 u y u 8 0 8 8 9 q 0 i g i F u A ! I I n n A n i u A g t r p 0 r w t r c r p u n g w u r ",
"o O $ $ & & o O + $ 2 r p L I L n s g c F g g L A c p s L i s c u g ^ } w u q 9 r 0 6 3 > = $ # # % @ X O O g n L #.3.4.7.#.c n ",
"1 , 5 5 , 4 , 1 , < < y i p L n p u w s s n n A n g n p g c I F A A A g r } L n I g c L ! } ! I ] A F L t ; I s L } >.<.O.>.I ! ",
": 2 < 5 4 > ; > : , 4 t w u q u y y 9 p p s c n c A n g p y p s s t r y w F A n g ! F A L I } #.] #.O.I A : 3.I 3 ! } L } >.! L ",
"1 > 1 3 3 1 > 1 1 3 3 u u t u r 9 r q t t u p p u L A ! n 2 6 c A p u r 9 g u r y w 0 0 u i w 0 q t q 9 9 r 3 r y 8 r 8 9 n A g ",
"s r p t r r 0 4 9 u u 9 s g y i p p n A g p g g p c F F s A &.;., 6 0 9 q q q 9 0 < F I p n n u u u u u u n u r w u s t c u q u ",
"y c y y q i 8 9 9 0 s r F y i u u g s p p p s s p u g F ! } ] &.r n F ! ] F A p F 6 c y ! u u n p p i t g c y t w r u q p r k y ",
"0 r r r 9 t t w w u c 9 u y w y y w t u i s i i c A n g I ] L L u n c F ] w.} A n y n n 9 u p A c u u u t t 9 w t u u w h t u s ",
"q q r t r r y r u 0 w 4 3 , : ; : < > < < 5 6 6 9 9 9 8 < < r g A n s i } F ] ^ ^ c A V X._ _ r w r r 9 u 0 r 6 3 5 9 6 q r y w ",
"q 0 w s u t u r u I 3 9 3 < 3 6 1 q 8 q < 9 4 3 9 5 9 r w q n F i ;.] } } ! #.I n ] >.X.N T Y t u u t t i q 0 6 r u s t w p k u ",
"0 9 9 0 8 9 8 2 < r , 0 5 3 5 4 5 0 0 5 2 2 3 6 6 8 9 8 q 8 u I ] &.L ! ! F g u #.7.A X.Y { X.y y p c s u t 9 9 r q t u g y u t ",
", 6 5 8 9 8 9 3 4 6 9 q 8 4 5 8 t 9 5 1 5 4 < > < : < 2 8 = t r t 6 w r y r y s y 4 6 5 9 q w q u s s t t 9 q r r r 0 0 u 9 w q ",
"+ % $ % % @ @ $ + O 9 6 9 r w 0 t 6 q 1 1 3 : ; < : 1 4 : w 1 < : 9 , 1 2 t u i n c u t u u N u u s g u t t i p i i r p y i p p ",
"O @ < ; - : : # $ ; ; 3 5 8 6 0 8 w y < ; 1 < - * : , , 9 8 9 ; ; 2 4 4 6 t w t 9 t y y y u q p t t r r t r u i u u s i u k k n ",
"- ; - ; = - * * % ; ; 5 u w y q 9 9 8 < 3 5 4 q < , 2 3 4 1 ; ; : 6 3 1 3 w r t y u i p s c p y r t t w w u s p u i t u c c i y ",
"r r r t r t t ! ! } A s c u p N p k I A O.>.I u c n c p p p y u u w r t u r 9 0 9 w t y r r 0 8 q 5 w u u u c g g c g g F c u p ",
"6 8 q q 9 0 3 y p y u s F y 4 8 y V _ #.i &.] p u y y i t r i u u u y A g r r s p u y r r t t u s 9 y r i y w u s s g y y s F n ",
"u 6 6 0 6 y y r q q 4 , < > 9 q 8 w 9 p r u s u p t t u i u t t p i p n u p 9 w t 9 q 6 9 w 8 r y 1 r r 9 9 0 q t r u u t 9 y u ",
"s r y r q q w r t r 9 6 - , ; , > - * % = = 1 9 0 q w r r r r p g 0 r c c t r p y 8 3 6 5 1 6 9 0 5 0 5 2 2 < < < , > : ; 9 6 6 ",
"u 9 9 0 6 6 c g p u r 9 9 5 9 q q w 8 9 i q 6 q w w 9 8 9 0 r t r 6 q r 8 t r 9 0 3 9 5 0 s u y q 9 q 9 9 9 3 3 3 5 6 3 < 4 t r ",
"5 2 < 1 , : g F Z y y 5 r q 6 4 9 u 6 8 0 y y r q u r q 8 9 t u y r w p y r r r r r r y t t u r 9 r w w 0 6 5 9 8 0 9 6 6 3 0 8 ",
"; 5 ; 3 q 0 s F y s 6 9 5 8 6 8 9 9 8 , : 6 q 0 9 y r u g n s F u r c u A L g u t r r r r q r q 9 0 q r w 0 < 3 , 3 6 3 3 < 8 9 ",
"r < 6 1 8 r u 9 8 8 6 5 5 4 3 4 < > 4 % ; 6 6 6 6 w w r r y u u 0 r c u g A y y y w q w 0 0 0 w y r w r 9 y 6 2 , 8 9 6 6 q 9 1 ",
"q 9 4 , 1 8 9 6 3 < < ; 1 2 1 1 1 , 6 % : 6 6 9 0 0 t r r q q r 0 r r r r u 0 t 0 6 6 8 0 0 y t t r 0 r q r w q 9 q 0 6 q 0 9 9 ",
"6 8 8 9 0 q 9 t r q t s % & % & & = - $ % < < 3 4 , , 3 < < > 1 1 6 < , 4 3 6 3 4 6 6 6 6 < 6 5 3 3 ; 4 0 8 5 q w 9 4 w 9 9 0 q ",
"y y y r t y u u y y n i 6 9 r r y q 8 6 q 6 q u p p t q r 9 0 u 9 y < 5 6 0 6 8 9 8 6 w 5 > 6 5 3 9 : 9 9 3 5 8 6 5 9 t y u s g ",
"u y t w 5 5 3 3 3 4 4 y w w w y t 9 8 w p p i t 0 t i t 6 6 3 8 0 w 9 r 6 4 3 4 8 8 6 w y r 6 g u y 1 8 t 6 2 6 3 6 0 y 9 i g y ",
"* * * > , 1 4 3 , : 5 5 q q q u p N w r 0 r q 0 8 5 5 5 > 8 3 1 9 0 4 6 q , ; < 3 4 2 4 8 6 t y u r 8 0 y q 8 r t w t u u y c n ",
"w t y y u N 8 7 8 7 0 q w t w t u 9 + r q r r r r y < < : i F q p t 0 6 q 9 q w q 9 8 6 3 6 q 6 t 5 5 9 6 6 8 6 u u y y t i s u ",
"t u u y w y u u y t r y y t t k 3 , + p w r r t r 9 9 8 q 3 i t w u t 0 8 i 9 6 6 6 6 6 4 3 6 9 6 r 9 6 6 6 6 5 r 0 r t w r 5 w ",
"y u y w u J k y u p t w t t y p u N 5 u y w e r w i y w 0 5 0 u w 9 q 9 3 r 6 9 9 8 8 9 9 8 6 0 u p c u y q 6 5 1 9 q 0 0 5 9 < ",
"X.J k _ M y i t 9 0 9 9 0 w w 9 p u w r r r w q r q q 0 9 w t r 9 9 0 r r 8 t w 9 9 0 u u q u y 9 4 y p F F F F i 8 q 9 5 4 9 2 ",
"u 8 8 1 w q 1 3 9 8 8 9 9 9 i w w k r t y q 8 4 w w 9 6 6 6 8 5 8 9 9 8 y 6 t 9 8 0 0 r u y u I Y N k u k k k k p t 9 5 3 6 3 2 ",
"3 9 2 r F } r 3 0 8 8 3 6 1 , 0 8 6 6 6 8 t 4 5 1 9 9 6 0 9 6 8 3 8 w y 9 u w u u c u r u c n u p u y 5 9 t y J k y w 4 q w < 3 ",
"p u n c I p A g s s ^ n Y ] I >.4.n A c t r < 3 ; > = - ; ; < < r w 6 6 s 0 y r 9 ; < 6 0 0 3 & o @ 2 4 5 1 : 4 y 7 1 > * & 1 1 ",
"p p p g y c ] F g s A I L J F J L y I ! A n 6 , 4 2 3 ; 5 > 3 3 6 2 < 6 1 w 3 3 r 4 y u y u c r w r y y w r t y y u u u u p i r ",
"c c n I L g n &.&.n ^ I L ^ ! i F I ^ F c n 9 6 3 3 6 3 6 3 4 6 1 r 9 3 5 9 9 9 u F r y u r q p N k y t u u u t q 0 q y u u y y ",
"O O O @ + O O X O O # $ X     . .     + & > 9 5 6 9 8 w 5 6 6 5 9 1 A p y n i n u g c u t t F ! 8 q p M p k N k p p k p p n F k ",
"< 8 2 2 3 3 3 3 6 4 2 5 ; * = & , - % 6 8 6 6 1 5 4 3 5 4 3 8 5 6 8 n u g g n c y c c p k u Y y M 9 N p y u y u i p p k k n p s ",
"4 r 4 6 6 6 9 9 4 2 4 8 2 1 1 1 < : r t q 4 6 4 4 3 0 0 3 4 3 6 5 3 ! n g A c u n g N p J V t k p 9 u p u p p p p p u u y r s t ",
"6 4 3 9 8 6 9 9 5 9 0 3 5 r r y y s c ^ p u 6 > $ X 0 i > ; * , * 3 s c F n n F g A J y y y y u w , & & % * % % $ # $ * - = * ; ",
"i u t t r w r r i u r r s I n g c r #.;.} n p I c 6 0 I L F A L y L t y t 0 0 y y u s u t u u y t t 5 q 9 y 9 ; 2 1 , 5 8 : 1 > ",
"u u t r w r r r u 9 9 y t n s u u 0 g g ] #.^ L n n 5 L I s u r u i u 8 q 0 0 6 3 0 t w w t y y y q 8 y 8 u 2 , 5 > 4 5 5 > : > ",
"9 8 6 6 6 0 w 9 3 q w t g L t r r w < : < y L n I F y 0 4 3 3 2 8 t t q 9 4 4 q 9 3 5 w t y p y t t w 0 0 , , , > ; : > , < < > ",
"w y w r u g c #.y n F ^ I L I I ! ! F ! L I ! n F ^ s L 9 9 1 , q 9 9 9 8 6 8 9 9 9 8 6 9 t q 8 9 w w 0 q y J J u k q u s t r 0 ",
"8 9 r u r c r O.9 s s s c p c ! L c A F F L c p n F A 6 w p 4 < 0 8 8 8 9 6 5 6 5 3 4 6 0 0 6 q u r 9 6 9 w i N y i c u t q r 8 ",
"y y r u s i 9 5 6 < < 9 r 0 9 w y i u s c s n A u w u r 3 < 3 * 3 9 9 0 9 6 5 0 6 2 4 9 r t r r r t r t w t i i p w t 9 r 9 t r ",
"% + & - = < 0 t 9 0 p u i y i q 3 < 3 6 8 9 0 9 8 r t 5 4 2 5 3 6 1 6 6 4 9 9 6 g t 3 2 - & = % % @ + + & 5 w r 9 q q r r 0 t t ",
"3 4 y t y i n r A g y n L n L c < ; 8 6 8 0 q 8 8 0 9 4 3 < 3 3 2 8 5 8 6 9 6 8 i 6 w 6 8 6 9 6 5 3 3 5 8 w t w 0 6 w 0 u r u q ",
"3 3 t q q u i u u t u r 8 6 r u 3 : 5 6 6 8 9 9 w 0 6 1 8 9 3 4 5 9 6 6 9 4 6 9 w 9 y u u r r 0 9 8 9 r q 0 r t 3 r q 0 q 0 9 < ",
"9 9 r r q t y u y r p p s i p y 9 5 0 u y w u p n g I u < > : < > ; 2 1 , : & > > < 2 > : 3 3 u u q 0 q t r r 0 r 8 r 8 r u 0 t ",
"u y r r i F F ] I u w u c A L p u n q g u s i A I s g ^ n ^ u n c s i t t i g p p A I I n u r L F ^ ^ F F c c I g A ! n L g F u ",
"w r t 9 r 6 w 8 2 r u g t r g p F i F ! g F u n s I c i u A r r w 0 q y u w u i L ! n c c i 0 O.] ] #.>.#.! A s c A s ! s c A A ",
"r r w 0 t q 8 9 9 8 3 , 6 r n n I r i y c u g i n c g F u - = > 2 8 9 9 6 u 8 A L n y u q r , ! g p g I O.] #.c F L g I L n g s "
};
