/* XPM */
static char *_c38013403b34fb4f98cd7f7405f892fMClGkAFNPtNN5tC4[] = {
/* columns rows colors chars-per-pixel */
"64 64 190 2 ",
"   c #51473D",
".  c #53493F",
"X  c #554D44",
"o  c #594F45",
"O  c #635749",
"+  c #63594D",
"@  c #69594A",
"#  c #655B51",
"$  c #695E54",
"%  c #6E6356",
"&  c #6D6359",
"*  c #716356",
"=  c #71665C",
"-  c #756A5E",
";  c #796A5D",
":  c #766D63",
">  c #7B6D62",
",  c #7C7265",
"<  c #7E746B",
"1  c #826E63",
"2  c #827465",
"3  c #897463",
"4  c #83756A",
"5  c #8B776C",
"6  c #847A6D",
"7  c #8B7C6C",
"8  c #857C74",
"9  c #8B7E73",
"0  c #907E70",
"q  c #89806F",
"w  c #8B8274",
"e  c #8D837A",
"r  c #938375",
"t  c #988171",
"y  c #93857C",
"u  c #9A867D",
"i  c #93897D",
"p  c #9B8C7D",
"a  c #958B82",
"s  c #9A8D83",
"d  c #998E88",
"f  c #9C9284",
"g  c #9D948A",
"h  c #9E998E",
"j  c #9F9B91",
"k  c #A29485",
"l  c #A19887",
"z  c #A2958B",
"x  c #A8968A",
"c  c #A49A8D",
"v  c #AB9C8D",
"b  c #A09790",
"n  c #A59C92",
"m  c #AA9E93",
"M  c #A99E98",
"N  c #B19E91",
"B  c #B0A18E",
"V  c #A5A195",
"C  c #ACA295",
"Z  c #A7A298",
"A  c #ADA49A",
"S  c #AEA99C",
"D  c #B2A495",
"F  c #B9A696",
"G  c #B4A997",
"H  c #B8A994",
"J  c #B2A69B",
"K  c #B8A79C",
"L  c #B4AA9D",
"P  c #BAAC9D",
"I  c #B9B19F",
"U  c #AEACA0",
"Y  c #B5ACA2",
"T  c #BAAEA3",
"R  c #BBAFA9",
"E  c #B6B1A6",
"W  c #BCB2A5",
"Q  c #B7B0AA",
"!  c #BDB4AA",
"~  c #BEB8AD",
"^  c #BEB5B0",
"/  c #BFBBB3",
"(  c #BCBDB8",
")  c #C3B49E",
"_  c #C1AFA2",
"`  c #C0AFA8",
"'  c #C2B4A5",
"]  c #C5B9A7",
"[  c #CABBA6",
"{  c #C2B6AB",
"}  c #C4BAAD",
"|  c #CABCAD",
" . c #C3B7B1",
".. c #C4BCB2",
"X. c #CABEB3",
"o. c #C6BEB8",
"O. c #CBBFB8",
"+. c #C9C0AF",
"@. c #C6C1B5",
"#. c #CBC2B5",
"$. c #C6C2B9",
"%. c #CCC4BA",
"&. c #CEC9BC",
"*. c #D1C4B6",
"=. c #D1C9B7",
"-. c #D1C6BB",
";. c #D3CABD",
":. c #D9CDBE",
">. c #D7D1BE",
",. c #DAD1BF",
"<. c #CDC5C1",
"1. c #CECBC2",
"2. c #D0C7C1",
"3. c #D3CCC2",
"4. c #D0CEC2",
"5. c #D5CDC3",
"6. c #D6CEC3",
"7. c #D5CCC1",
"8. c #D5CEC4",
"9. c #D7CFC4",
"0. c #D6CFC5",
"q. c #D4CCC2",
"w. c #D9CFC3",
"e. c #D9CFC5",
"r. c #DACEC3",
"t. c #D7CEC9",
"y. c #D8CFCA",
"u. c #CFD1C6",
"i. c #D2D0C4",
"p. c #D4D2C6",
"a. c #D6D1C4",
"s. c #D8D0C5",
"d. c #D8D1C7",
"f. c #DBD1C7",
"g. c #DAD0C6",
"h. c #DAD2C7",
"j. c #DBD3C6",
"k. c #DAD1C5",
"l. c #DCD2C6",
"z. c #DBD3C4",
"x. c #D6D4C8",
"c. c #D5D3CA",
"v. c #DBD3C9",
"b. c #D9D2C9",
"n. c #D9D7CB",
"m. c #DFD5CB",
"M. c #DED6CB",
"N. c #DDD5C9",
"B. c #DAD7CD",
"V. c #DED7CD",
"C. c #DCD4CA",
"Z. c #D9D9CD",
"A. c #DAD8CC",
"S. c #DFD8CE",
"D. c #DDD9CF",
"F. c #DDD9CD",
"G. c #D5D6D0",
"H. c #DCD9D0",
"J. c #DEDCD0",
"K. c #DEDBD1",
"L. c #E1D6C6",
"P. c #E2D8C6",
"I. c #E0D7CD",
"U. c #E2D6CB",
"Y. c #E8D7CF",
"T. c #E1D9CF",
"R. c #E1DBCF",
"E. c #E0D8CD",
"W. c #E3DBCC",
"Q. c #E9DBCD",
"!. c #E0DCD3",
"~. c #E0DED2",
"^. c #E1DFD3",
"/. c #E0DCD1",
"(. c #E4DDD2",
"). c #E3DDD2",
"_. c #E3E1D5",
"`. c #E5E3D7",
"'. c #E6E0D4",
"]. c #E6E1D5",
"[. c #E8E0D5",
"{. c #EBE3D5",
"}. c #E6E2DB",
"|. c #E9E5DA",
" X c #EBE4DB",
".X c #ECE8DD",
"XX c #F0E7D8",
"oX c #EBE6E0",
"OX c #F0E7E0",
"+X c #F2EAE4",
/* pixels */
"O.Q %.! J !  .%.I.%.3.&.&.;...&.%.%.3...3.#...%.@.! Y ! &.3. .n 7.%.#.*.-.O.! ..O.-.X.X.X.X.X.X...E E ..Y Y %.Y g n Y Y L E R ..",
"R g A Y J M C R R &....... .%...@.! X...3.&.E  .3...&...R &.-.A &.%.%.{ R %.&.%.#.X.%.&.-.%...! #.e.k.3.7.;.{ f #.Y Y A C #.Y Y ",
"C A A n Y Y Y ..X...%.%.X.~  .&.3.%.&.3...%.&.3. .%.k.b.k.9.9.n ~ Q J Y C Y { X...! ..{  .....E Y X.R E Y  .E X.m.).m.k.#.&.a.7.",
"A J m J A Y Y %. .&.%...%.;.3.;.&.&.&.%.&.&.%.#.%.%.$... .@.&.S $.@...@.#.X...{ !  ...! ..Q X. .! X.-.X.#.X.{ c #.X.&.#.-.{ ! { ",
"%.#.%.X.#.;.%.3...E ! ! Y Y V c h g e V h j V A L Y Y E E Z V j U ! ....@.%.%.%.@.%.%.;.b.;.%.k.X.e.7.9.b.;.#.a.k.k.k.k.7.m.k.z.",
"#.w.l.;.k.7.e.M.;.k.m.m.;.[.T.T.T.T.&.!.H.!._.T.D.M.M.D.T._.J.x.x.A.B.D.!.!.!.}.J.|..X$.%.#.m.w.9...g f c C ;.7.%.&.! ! %.X.k.;.",
"7.%.%.#.#.! m T #.:.} T W L D D } e. .OX|.D.B.'.).b.9.3.;.C.i.x._.a.%.3.1.!.J.A.H.^.|.n L c L @.@.%.L D W W @.;.%.%.X.#.#.{ %.%.",
"Y Y Y Y g n P P L v L L T W f C m i e  X%.H.^.D.).m.7...Q / H.D.B.D.^.D.x.a.B.1.x.&.%.{ Y E %.z.;.N.#.#.;.;.:.m.k.3.&.#.#.%.;.#.",
"Q { { { n d i f f C c C c f w 4 % % X k.3.&.&.a.k.a.D.).).H.a.7.&.3.1.&.&.3.3.&.1.4.3.s c n c C W L C A S Y n A L Y E ! Y ! R Y ",
"#.%.-.#.%.7.%.%.#.&.;.&.;.N.:.%.;.;.~ #.7.C.A.a.C.m.).!.(.T.b.9.-.b.b.b.b.3.9.b.x.x.a.%.;.l.{.{. XW.XX.X|.{..X[.'.[.[.).[.).T.).",
"b.m.(.;.7.;.;.%.:.N.W.N.N.:. XW.M.W.w.C V S A V A A C C A A m n g n g g g n n z n n V #.@.;.E a P @.:.a.x.C.C.z.b.M.;.Y Y E %.#.",
"} W W @.} X. .#.X.X.X.%.@.3.;.X.#.#.X.{ ! { ! ~ E ..%.;.7.k.&.;.;.&.%.{ k.7.#.X.;.#.&.Y { W W I I } l ! ;.k.X.{ X.} C L +.%...E ",
";.N.z.N.W.a.w.k.m.k.T.C.b.X.Y m.#.! %.-.;.X.#.{ -.{ { ! R Y {  .! Y E ! J A ! ..Q Y Y %.k.%.*.=.+.P W C D W W D } D } W W L Y X.",
"N.;.:.>.:.z.m.b.7.7.3.a.k.%.;.;.k.m.#.;.X.e.).r.Y.Y.Y.r.I.b.m.7.%.! n e.E n f L Q n ! ! 3.7.:.z.z.;.W v v k k D k L @.#.} %.-.X.",
";.@.#.} } W ! { X.;.;.;.3.&.#.9.;.C.e.g e 9 y z d y K z Y A C A ! %.{ E X.! -.7.;.#.! n L C L C D m C k x v v v D c C c C C z n ",
"A C W z.z.;.a.7.;.#.#.#.#.&.Y X.#.X.Y 7.%.%.%.-.-.;.-.7. .3.&.%.%.;.%.7.-.;.-.;.;.7.;.Y ! f X.Q n L L W L P z C v C c J } L C A ",
"k.k.k.#.%.@.%.%.#.%.%.%.;.E 7.&.&.9.7.! ..#.E ! ~ ! E ! ! { ! J Q ! ! ! X.%.%.Y Q %.%.{ E #.L Y { J Y ! E L E C n L W W f f Y Y ",
"W X.{ X.&.&.3.&.%.{ &.#.X.-.-.&.9... .%.&.3.;.3.%.&.&.%.3.%.&.&.%.%.%.;.%.%.@.&.p.4.x.n Y W X.;.X.%.%.%.X.%.X.#.%.%.z.P.;.:.&.7.",
"@.3.;.X... .! !  .!  .! E Q !  .R Y n -.%.3.&.1.1.$.o.o.U Y Q o.! Q %.%.<.&.&...1.&.@.L } ! W C { Y C C J D L W W L c z c C Y ~ ",
"X.Y Y Y C n n g g a e e e 8 < : < 8 a ! %.Q ! o. . .$...8.8.t.3.8.q.y.<.<.%.2.&.%. .Y z.P.P.P.Q.{.W.{.[.{.N.W.W.Q. X X X X{.+X[.",
"<.M.a.7. .! ! ..%...7.3.%.! { .. .{ ..&.! .. .{ { { X.{ ! Q { X...! { { ! Q  ...@.{ ! | #.} W L } } %.;.%.;.} ;.%.z.:.%.N.;.k.m.",
"! n f f 9.C A Q ! Y L J Y Y X.).T.%.b.n g a i s p p l f i w , - , w i i i w w 4 , 6 w X.' L } ;.,.=.%.+.:.#.;.;.,.:.;.N.;.;.k.C.",
"n S V V V A A m f a h h A %.c f L { @.%.%.%.w.:.z.W.N.%.:.:.#.*.z.l.:.*.:.=.#.=.} } X.| :.P.N.N.l.P.W.P.N.N.N.z.{.z.W.Q.Q.Q.:.L.",
"A n n ! A C m L Y ! ! Y A A A a a f 7 ;.=.} #.} C W I } } ;.%.%.W c W G I W ,.%.=.C } P.L.N.;.z.W.P.N.:.:.:.;.%.W +.=.:.=.;.#.*.",
"! ! ..Q  .X.{ Q { ! Q  .{ L Y { R W W @.=.:.W L L @.@.} C @.} :.L.k.z.J W } W W +.} W ;.;.N.7.k.;.7.k.a.z.z.N.;.N.,.:.;.z.z.=.L.",
"< 8 8 e e 8 e a a f f s z s g a y s < n a W { { T X.} X.} L Q Y Y C E E L Y C c c c c 6 w e e i i f g f f f i i i p p f k c f p ",
"M.}.|.oXoX}.).Y Q  . .R ! { E #...{ ! { { { #.X.{ } k.k.(.m.&.;.;.7.;.;.;.&.;.;.7.7.7.k.7.k.7.7.k.b.k.z.z.z.#.} f v ' P ] +.*.} ",
"1.c.c.G.G.G.9.n n n !  .#.7.&.{ Y R %.X.#.%.%.{ A ! 7.I.).x.a...E @...@.%.%.%.%.%.%.%.3.&.%.&.%.X.%.;.&.=.&.~ } L } ' ' ' P z 6 ",
"! <.o.<.8.+XC.7.%.;.#.#.X.n n W { X.| W P i T } X.T i C R %.Y L ! ~ E E V ! ! S ~ &.Y ! ..S ! $.! ~ Y } C f L :.,.%.} @.} X.W } ",
"B.c.4.1.1.1.V.%.X.{ Y { J { ! { { W D l J } J L ' P k 2 @ * : X.$.1.4.3.3...&.&.E %.@./ @.%.%.#.3.&.&.:.W W ' L L D D C C L W } ",
"&.i.c.p.1.u.%.%.! Y Y W Y ! Y Y L A C c C D L D P B D k p p D ~ ( ( %.X.%.%.{ ..E { &.! %.! { #.#.! ! Y { ;.@.w.-.%.-.#.&.%.%.X.",
"@.$.$.o.o.$...9.9.;.k.l.a.9.k.3.7.9.a.a.w.e.7.z.z.z.=.=.=.z.z.&.1.<.3.7.%.;.!  .! X.X.%.{ ! X.X.X.X.&.;.;.;.:.a ! E ..X...%.X.#.",
"e e a a a a e (.k.C.M.a.C.D.k.'.'.!.T.M.C.C.C.A.C.C.D.C.a.3.9.c z z g g c A m n z n n f g n L A J Y C Y C ! { y f M n J n n Y ..",
"..X.T ! { ! V !.D.a.C.a.!.'.D.M.D.D.!.'.'.'.'.^.H.J.x.H.A...9.c s c z a a i z d A A z C C c n c i d m i m g n g A n n n ! ! ~ Y ",
"A P T T D P V #.;.a.C.M.C.D.a.D.a.k.3.3.D.m.k.a.D.D.%.9.%.7.-.R E R T E { { ..A { ! ! W Y m J J T { } ....E #.R E J R Y R J A n ",
"A D W } *.' m X.#.#.{ E { } { L W T T R T Y L W { L T W w.{ ..! ! { ..X.Y } Y ! ..{ ! X...} { { { ' { ! W L T 7.-.L.%.X.E T X.! ",
"a 7 i r 9 r 9 y y s s y p p p p p p p p 0 r r r 5 r 9 2 ; : 6 # $ # # & $ # o # X .   $ + $ * ; * ; * - + % - i i i f f l c C s ",
"{ P X.C c C D z m m { ! *.*.-.#.*.-.*.J { { Y ' J T ' J L m A A T E L ! L Y A J A C E { -.*.| *.:.:.#.%.W ' W W D } W } } } { &.",
"%.T X.X.' W ! X.O...{ E R R R ..{ { { J m A z z Y s z n z ! Y { E ! %.R W ..-.{ R W ! Y ! ' } W L D P I +.+.} } @.' %.@.} ' L D ",
"X.} { { { k.7.3.%. .X.O.q.&. .%.2.O.{ { Q ~ $...%.%.%.! ....%.@.%.@...~ ! o.o.~ &.o.#.#.:.| %.-.} J W } ;.} X.;.#.} ] | :.L.z.;.",
"P P P P T c L R { ! X.R T { { ! ! X. .O.X.X. .%.%.%.!  ...&...a.&.@.o.&.3.3.@.@.1.&.&.A C L c m J C J D D C J J G P v C c f s z ",
"' ) ' ' T ' ' ' P P P P D D P D F D D m ! Y A A Y ^  . .Y C Y m J { E X.X.Y E E E Q &.%.7.z.z.;.k.w.:.:.,.z.N.z.#.*.*.#.=.:.*.| ",
") [ [ ) ) H P P P ' ' ' P ' ' _ | ' L c { ' { { { O.{ { } { { O.} } ' { { X.W } Y ! Y %.! k.X.A Y L n D f C W i z k k k p l z z ",
"L.=.,.P.,.P.L.z.:.=.=.=.=.*.=.| #.| *.} ' ' ' D F x v p v z P P ' ' ' P T L | ' ' ! L &.4.! %.I.e.7.k.%.:.c C } L D ' P ' W P } ",
"z.:.z.z.z.P.w.z.m.k.k.z.m.7.:.w.z.:.#.7 1 5 1 5 3 7 t 7 k m v P P _ x k J ' ' ] ' } ....$.%...X.O.X.%.c } z.;.} { | } W P J W } ",
",.N.N.a.z.N.W.W.W.{.{.'.{.{.{.C.k.7.-.c f f f z v m D v D R T W P ] ' =.' ' | ' ' | ' T ' { ..! Y ! Y #.X.{ { -.w.z.z.:.:.;.;.e.",
":.-.=.*.*.#.*.*.*.*.#.X.;.;.;.;.;.;.O.' X.X.O.-.-.*.:.r.O.*.X.} } } L W ' W W ' T ' T s k z m m C T W ! ..#.X.%.-.-.;.:.7.7.7.;.",
"i k k p p k k y p z k s c g g c z k m z > > > 2 , > > : = = = ; 7 w i p p l f c v l ' c p p z z m v z i e 9 8 - ! L D A C n z i ",
"T P D c C C L v C C ' ' R ..%.Y m n R J { R { J J W J m R R P W L.=.=.=.=.:.*.:.*.| P P G P W T P | | #.X.X.%.e z c s g f z z y ",
"X.} @.:.a.W W C } W @.W n Y m m R R  .O.*.X.R J z { { O.T J D X.=.:.:.z.;.;.;.:.:.#.,.#.] ' J } =.z.+.;.%.#.%.i m m Y m R Y ! { ",
";.7.7.7.7.%.-.L L n z f s } z J C e z g a d d m ! ! Y J C ` m ' {.Q.,.=.*.| :.#.,.:.;.z.:.z.,.z.W.z.L.N.z.7.m.A X.{ R { ..J n R ",
"M.3.9.b.m.b.e.9 g n n n e 9 z z n c z d z z m a i g m C A n g A X.#.L.*.:.:.Q.z.P.z.P.z.z.P.P.P.W.m.L.z.N.P.T.f > 2 9 6 9 y 8 e ",
"X.#.&.;.%.7.7.{ %.-.%.#.*...X.O.X.*.X.X.X.*.*.C.7.C.m.T.).(.[.} } @.X.:.X.=.*.*.*.:.:.,.P.:.:.*.} =.-.;.%.#.#.S C A Y Y Y { X.} ",
"c z z n m C n @.C.e.e.7.7.%.#.7.:.w.r.r.w.r.O.%.7.e.C.e.7.b.k.V ! W T { } { W { W W W ' W P { W W | } W } | } s Y R Y T A m A J ",
"#.O.X.%.;.-.X.-.! Y A A ! X.%.E E Y ! O.{ J { Y J n f g A A { n W @.' { { { X.' } } } X.#.*.| X.-.-.:.#.#.#.-.9 &.{ E { #.{ E E ",
"T ..W W L z Y L J Y Y R ! { Y ! X.Y Y J A J J A Y E X.! A m m 6 J D { R Y { W { ' W W J m z z J v k m v l k J s X.;.! 3.;.k.e.:.",
"c { m D T d c m P m P P ' ' X.' ' r.7.-.{ X...X.T L C D C m m c -.-.z.r.r.=.:.:.%.:.w.-.;.R -.*.;.*.;.w.7.7.! e ..#.X.L n c { J ",
"m m J C D J D 4 v m z m m D z v z n n n g m c c m s l f z z k 9 P #.:.W #.X.X.O...{ { ..X.X.#.R W T J n n n A & i i s a y i s s ",
"v J m D Y J Y } *.| *.X.X.X.X.X.| } ! R J A m C v l f f l p u N N N J L D J L L L J D w w 9 s 9 e 6 = = & % = 8 9 f g f z f n s ",
"} X.O.-.O.%.X.*.:.-.:.-.-.' :.=.:.l.k.%.-.-.-.%.%.%.X.#.%.| | | X.X.*.*.*.:.=.-.;.%.-.{ X.X.{ ! *.X.m c n C n n ! ! A n Z b Y A ",
"Y Y { m Y T J L D T X.' J C =.z.-.l.m.m.e.e.k.z.>.z.N.N.N.z.L.P.P.P.L.U.U.Q.L.r.w.;.7.X...{ } W { J s a a a a #.%. . .n j &. .n ",
"O.X.{ { Y P L P W D D P ' ' m K P P C ;.r.I.m.z.N.z.>.:.;.z.>.;.:.,.z.w.z.:.;.:.7.:.;.! { W W } { T f g g g z r.:.%...h g &. .A ",
"9 r w 9 7 2 * * % 2 5 2 7 r 4 2 ; ; O :.;.L.T.:.;.=.;.z.N.P.P.P.:.,.k.;.;.#.@.;.;.@.z.2 q 6 6 w r w % = = = # # : & - & & f - : ",
"X.r.;.r.w.-.w.=.:.:.:.L.z.z.@.-.=.} } X.#.W ' ] ] P ] P P K D N _ _ v P P P P ' W | } } :.z.P.:.L.l.W Y Y Y Y ! m A L T L T Y E "
};
