/* XPM */
static char *_4ecf583b0da4f0cb11a21c42f8e240b0CYav5ztKd7dZi5R[] = {
/* columns rows colors chars-per-pixel */
"64 64 256 2 ",
"   c #4C1808",
".  c #531E0C",
"X  c #4F1B11",
"o  c #5A220B",
"O  c #532515",
"+  c #5C2A13",
"@  c #592818",
"#  c #532A10",
"$  c #652A0C",
"%  c #632C15",
"&  c #672C16",
"*  c #6B3414",
"=  c #6B341C",
"-  c #67351A",
";  c #74351D",
":  c #763919",
">  c #733115",
",  c #592D24",
"<  c #5C3628",
"1  c #54322D",
"2  c #643424",
"3  c #6C3B24",
"4  c #6D3D2B",
"5  c #683727",
"6  c #743C23",
"7  c #743D2B",
"8  c #773928",
"9  c #683E32",
"0  c #743D32",
"q  c #642E25",
"w  c #77421E",
"e  c #6C422B",
"r  c #7B4325",
"t  c #74432C",
"y  c #7C442C",
"u  c #774729",
"i  c #6D4233",
"p  c #6A4539",
"a  c #734433",
"s  c #7B4533",
"d  c #7C4B34",
"f  c #744C3B",
"g  c #7B4B3A",
"h  c #764738",
"j  c #7C5239",
"k  c #794B42",
"l  c #7D5444",
"z  c #775348",
"x  c #72564D",
"c  c #883A1A",
"v  c #833D26",
"b  c #904719",
"n  c #844424",
"m  c #83462A",
"M  c #844A2B",
"N  c #8B4C2C",
"B  c #894727",
"V  c #924C2B",
"C  c #944926",
"Z  c #8B522C",
"A  c #97542A",
"S  c #844C34",
"D  c #8B4C32",
"F  c #834D3A",
"G  c #854936",
"H  c #954D32",
"J  c #8B5334",
"K  c #83533B",
"L  c #8B543C",
"P  c #8A5A3D",
"I  c #855435",
"U  c #945334",
"Y  c #9C5534",
"T  c #9B5C34",
"R  c #93553B",
"E  c #945B3D",
"W  c #9B5B3B",
"Q  c #975837",
"!  c #A7582C",
"~  c #A25634",
"^  c #A35A35",
"/  c #A35C3B",
"(  c #A95E3C",
")  c #AA5A36",
"_  c #B1592F",
"`  c #9B623C",
"'  c #9A653B",
"]  c #9B662E",
"[  c #A5623C",
"{  c #AC633C",
"}  c #AC6A3D",
"|  c #A76736",
" . c #B3643D",
".. c #B36B3C",
"X. c #B86738",
"o. c #B9723C",
"O. c #B16D34",
"+. c #A4491D",
"@. c #C4763D",
"#. c #C16C3C",
"$. c #835542",
"%. c #8B5542",
"&. c #855A45",
"*. c #8B5A43",
"=. c #845A4A",
"-. c #8C5C4A",
";. c #89554A",
":. c #945D44",
">. c #9B5D43",
",. c #935C4B",
"<. c #945846",
"1. c #8A5D51",
"2. c #8F5348",
"3. c #A45D43",
"4. c #B15B40",
"5. c #8C634C",
"6. c #946243",
"7. c #9B6244",
"8. c #94634C",
"9. c #9B644B",
"0. c #9A6A4A",
"q. c #896454",
"w. c #946552",
"e. c #9C6A53",
"r. c #9C6C5A",
"t. c #976855",
"y. c #9D7358",
"u. c #A36343",
"i. c #AA6343",
"p. c #A36A44",
"a. c #AB6B44",
"s. c #A3654B",
"d. c #A46B4C",
"f. c #AC6C4B",
"g. c #AB664A",
"h. c #B26543",
"j. c #B46C44",
"k. c #BA6D44",
"l. c #B36C4C",
"z. c #B86B4B",
"x. c #AB734D",
"c. c #A8744A",
"v. c #B37343",
"b. c #BB7344",
"n. c #B4734C",
"m. c #BB744B",
"M. c #BC7B4C",
"N. c #B77A49",
"B. c #A46C53",
"V. c #AC6E53",
"C. c #A56956",
"Z. c #B36D52",
"A. c #B76E57",
"S. c #A57255",
"D. c #AC7254",
"F. c #A3745B",
"G. c #AB725B",
"H. c #AD7B5C",
"J. c #A87A58",
"K. c #B37453",
"L. c #BB7453",
"P. c #B47B55",
"I. c #BC7B54",
"U. c #B4745B",
"Y. c #B37B5C",
"T. c #BC7C5A",
"R. c #BB735B",
"E. c #AC7B62",
"W. c #A87664",
"Q. c #B37C63",
"!. c #BA7C67",
"~. c #AC786E",
"^. c #9E7061",
"/. c #C27444",
"(. c #C3764C",
"). c #C47B4C",
"_. c #CB7C4B",
"`. c #C97946",
"'. c #C37C53",
"]. c #C97D53",
"[. c #C27C5A",
"{. c #C57754",
"}. c #D07949",
"|. c #C37C64",
" X c #BD854E",
".X c #AD815B",
"XX c #BD8353",
"oX c #BC825D",
"OX c #B98759",
"+X c #BF9356",
"@X c #AC8369",
"#X c #B58163",
"$X c #BC8364",
"%X c #BB876A",
"&X c #BB8973",
"*X c #B88D6E",
"=X c #CA834C",
"-X c #C6854C",
";X c #D6864C",
":X c #C38354",
">X c #CC8354",
",X c #CC8B54",
"<X c #C4835C",
"1X c #CB845C",
"2X c #CC8B5C",
"3X c #C48C5A",
"4X c #D48A54",
"5X c #D38C5C",
"6X c #D88857",
"7X c #CC925C",
"8X c #C79257",
"9X c #D5925C",
"0X c #D9965B",
"qX c #D4944A",
"wX c #E4975B",
"eX c #E59053",
"rX c #D5A25D",
"tX c #C38462",
"yX c #CC8663",
"uX c #C48B63",
"iX c #CB8B63",
"pX c #CD8D69",
"aX c #C5886A",
"sX c #D28D61",
"dX c #D48B67",
"fX c #CC926C",
"gX c #CB9566",
"hX c #D39364",
"jX c #DC9462",
"kX c #D3946C",
"lX c #DB9C6A",
"zX c #D89967",
"xX c #C48D74",
"cX c #C99575",
"vX c #D59975",
"bX c #E39A67",
"nX c #E69971",
"mX c #DCA26B",
"MX c #D8A568",
"NX c #DCA272",
"BX c #D7A579",
"VX c #CFA278",
"CX c #E8A76C",
"ZX c #E7A977",
"AX c #E8B378",
"SX c #F3AF75",
"DX c #BA8E85",
"FX c #C79C84",
"GX c #D39D84",
"HX c #CF9891",
"JX c #D6A38B",
"KX c #D5A893",
"LX c #E9B485",
"PX c #F4B687",
"IX c #EAAE8E",
"UX c #F7C58F",
/* pixels */
"jXsX).5XnX). XMXAXAXCXqXMX-XCX7X XN.XXM.2XCXmXbXCX>X_.`._.>X/.).X.k.b...v.n.1XI.H.:.I 7.7.d.%.h *.L.(./.`.)./.b.5XI.Q #X*X.XY.x.",
": : f.B : $ ; & 8 8 G H c > n 6 & 7 8 y D 7.m j -   u K $.e e.*.-.8.,.% - t K e.$.1.;.k q h i < < i 6 0 5 3 + 2 8 m s h 0 5 q 2 ",
"0X,X=X-X0X4X@.4X,Xv... X-X,XzX,XNXPXMXNXMXMXNXmXAXZXNXhX:XsXm.m.'.m.dXz.jXsXlXsXNXgXP.oXZ D.r.&.l t.f 5.5..X#XOXP.p.J I u OXOXc.",
";X6X_.;X_.wXwX4X,XN.OXN.CX9X-X-XmXUXAXAXMXAXMX8XmXZXN.7X2XhX'.sX<XL.D.x.sXlXgXBXNXgXvXtXW tX$XS.K g r.*.L S.#XD.P.D.8.*.8.Q.oXx.",
" ... .k.{ ~ ( h.s.%.F I / T T T A a.oXp.Q c.a.' c.x.c.Z n M r 6 % + @ 8.r E t < a 4 h h w.h d + + - i q 0 s 4 3 0 @ g h 5 & L F ",
"..2XlXlXhX:X'.} uXK.vXN.`.4XzX7X,X2X'.9X,XZX9X,Xc ) ).6XnX} a.U Y D K.i.) ~ R C.t.&.l f < =.=.F.%.;.a R B.L d 6 S.: %XOXkX7XP.T.",
"CX-X4X0X9X9Xo.N.XX8XzXo.lXmX8X8XgX<XjX0X! CX..`.5X'._.`.nX_ ).^ ( H { T 1X<XT.Z J.J.xXcX6..X.Xd.M d.0.n aXM : : pXN P.oXiXfXXX:X",
"P.:X XXX<XXXoXP.' c.XXN.m.} b.o. .k.j.| ).v.v.C v D ' : n.Z W a.T.g.K.p.J aXB.. w.8.y.t.5.5.%.S 7   6 : J I t >.r %.  7 L ; P y ",
"x.uXT.7.uXU V.U.Z.U.U.U.G.U.<XyXl.tXoXU f.oXuX%Xt.1.KX*XJXJX&XJXcX!.U.aXs.C.,.G.t.2.w.,.2.!.!.A.R.A.i.|.!.%.C.U.A.K.T.f.I.I.Q.W.",
"Q J 7.E p.` A O.0X,X..v.OX3X3XgXM H.y s G.B.H.Y B f.jX>Xb. . .].)./.{ | m.iX} a.uXuX$XD.T mX-Xo.#.O.o.'.M.N [ [ >X{ m.M.:X5X<X2X",
"B.U.V.D.T.p.c.Z ZXI.x.Q.<XiXn.u.y P 8.w.r.-.8.t.i   J.K.T.V.d.G.9.P :.Y.V.B.s ,.9.e.E.w.%.Q.$X!.g.C.<.= + a $.E.W.B.s.V.$X%XcXY.",
"g.a.Y I.a...a.n.K.f.0.e a.f.tXd.B.B.Q.G.R Q.V.U vXgXI.1X[.K.R %.9.B.g.I.i.%.F d.n.L.I.[.<X{ '.{.V Z.x.U.D.Q.R s.>.* s.U.u.f.T.i.",
"..iXU u.B >X:Xv.b.[ n.7.K.cXvXd.:.fX' MXN.8X0XNXAXMXMXlXnX7X` E d.P.u.W x.F 7 P.yXl.[.<XL.<XyXyX~ 3.<XL.[.z.'.L.i.> L.l.{ ^ m.{.",
"x.E x.f.M.M.T '.m.<XT J  X XgXgX3XuXE T.<XNXZXlXPXZXNXAXiXmXd.0.L D :.e.*.7 :.9.S 6 6.Y.D.B.G.C.R Z.f.I.f.I.l.yXT.N D.tXiXu.7.K.",
"7.x.I.n.[ } K.7.r r E vX,.<.2.e.!.L U.U.yXkX[.T.I.:Xp.7.y s.B.8.F.<.G s g F E L F 9.*.9.I t s ,.2.L E J L I s t K w.a t *.-.j - ",
"5XlX)._.5XpXpXIX` ` I.l.p.a.T T T | SX0X;XjX>X1X5X>X[.oXD.G.9.0.9.Q.oXB.$.D.Y.W.r.-.8.d -.*.*.-.=.w.*.-.e.F.*.E.W.a F.y.F.xX:.7.",
"jX8X=X_.>Xn A k.[ b...! R Q U n [ m.bX/.].z.m.o.o.#.>X[ Q >.B.S.d.x.a.U.,.:.#X1.*.a K $.K L d e < f =.9.6.Q.E d.B.H.$XY.B.D.f.V ",
": : $ M r M M M Y.R M :.u Z B ` ' :XC V W > m r ; = s 2.s t < 1 , @ 5 a i i 9 9 7 7 a t m m y t - y S r r G y 3 7 7 s t d a 4 s ",
"@.b.).nXhXZXSX0XqXCXSXrX}.}.eX}.eX}.;X;X;XO.qXeXeXwX;X4X0X5XA oXoXoXY.G.e.,.:.9./.k.k.`././.'.'.l.L. .).].m.h.z.i.K.[ P.W d.` ` ",
"}.>X=XzXmXAX2XhXhXkXZXNXjXb.).jX9X1X{.m.(.4XwXwXwX4X>X5X6X4Xj.u.9.7.F F ,.- :.P M.).sX1Xj.(.5XyXz.L.(.m.'.'.h.L.yXfXQ d.D.6.Y.D.",
"i.>.>.r ; S J I y y * * L 2 3 s 2 7 8 ; B [.z.L.l.u.B D ; > D 3 2 4 4 @ 5 $.5 &.t t r G :.r N d.>.* D D 6 * R D.7.9.y o %.+ g $.",
"2X3XvXkXZXNXgX X} N.! ).o.@.o.! ,X| ).=X_.=X;X,X,X5XT M.<XW i.i.T.V.9.E 7.L % L a + o ; E s.u.!.9.D Z.>.9.V.J d.m N U V.U.d.d.r ",
"2XZX4XCXCXwXPXzXv.9X6XCX}.6XjXjXbX/.`._.;X_.4X5X].].) j.>X| v...).:X[.H 3.D 8 !.L.k.( C W i.Y W >.W Y Q 3.g.Y ^ ) z.L.Y A.Z.yXT ",
"' u.x.a.n.n.v. XA O.o.o.b.| | ] ] p.m m y = 7 y J y :.u d.V.K.N s.R L 3 *.*.P u m :.L G d S s 2 @ 2 2.7 F G 7.U.pXo.b.b.:X>XT.r ",
"nX5XA LXLXBXZXlXkXIXPXfXnXvXJXIXIX2X0X9X2XlXZXLXZXLX$XuXfXfXc.%X@Xt.,.,.W.Q.&X<.[.[.yXyX<XI.tXtX>.V.Z.kXiXkXm.1XL.> A.R.|.tX1X].",
"eX6Xo.SXZXPXCXAXAXUXAX7X,XCXCX0X0X0XbXbXjXbXSXSXZXCXM.ZXPXnXm.L.|.g.T T N.} | A ].(.5X5X'.(.(.b.A h.].6X4X>X_.6X].U f.a.N.} /.X.",
"T C v.kXiXlXvXfXvXvXvXP.3XuXcXVXBXcXuXcX.Xw *XJ.H.cX&XFXcX%XP y.0.e.r.l t.g -.,.#XH.G.S.e.7.H.%Xd &XB.a.pXI.m.i.[.~ L.i.^ { p.p.",
"OXoX.XOXc.NX3XN.3XzX,X9X0XCXSXSX5X).SXPXZXZXZXZXlXkXU U.Z.l.g.l.R.R.d.: BXfXiX1X1X2XiXfXU.T.I.I.vXK.'.oXaXD.s.V.xXGXS.H.Q.r.C.D ",
"..:X XmX,XbX-X8XbX@.;X;X4X;XbX5X0X;X@.).:Xo.;XeX;X/.A n.I.z.j.L.j.m.`.b 1XkX).`.<Xn.yX<Xh.(.}.).j.( i.a.'.I.U d.F F :.J a.v.{.c ",
"XX8X8XrXrXqX0X0X@.#./.}.k.h.>X].'._.;X=X../.6X:X2X[.K.$XkXjX`.6X6XbXvX7.Q.8.r.B.l.f.I.[.L.k.X.X.X.)  .k. ./.h.3.G $.-.-.#XY.3Xb ",
"K.&XW.S C.s.B.E.Q.G.W.g J 9.*.-.e.H.w.q.W.W.D.i.j.[ kXQ W *.4 -.$.w.W tXK.>.<.3 f l p f t.=.=.l z 1., -.&.w.1.k z 3 :.0.R p.C.,.",
"UXPXlXsX-X9X=X=X@./.).2X>Xb.5XN.:X:XL.W d.1X_.].).b...(.1X(.h.k.(. .o.o.#. .z.H B.G.S S S s.V.Z.u.K.L.).4X;X;X:Xk.f.f.pXpXlXvXfX",
"LXzX7X-X0X0X=X;X`.;XeX;X>X....m.b.'.a.[ U 1XX.a.I.v.a.Q v /.X._.X.X.k.k.k.'.I.U >.R E D.:.>.[ ~ { ].sX6XbX;X;X;X(.tXP.oXT.fXgX8X",
"- - - R 6 = - 4 % 6 r J W.6 = & @ @ < < k 4 = F 3 - = J y a K @ 4 3 3 - : * * 6.5 4 @ 4 < @ i 4 K 4 d = 6 3 7 m S W : M w : 9 , ",
"hXAXAXAXAXNXgXhXa.T j.j.^ ..>X..M.Z K K 6.6.I q.i e P J.0.S.*.r.e.:.K *.Q P.kXvXiXtXaXcXvXx.I.m.n.I.pX<XK.Q.B.tXsX[.n.uXfXBX*Xd ",
"N.MXMX+XLXUXNX3XM.} 2X} |.Y m.:XhX7.d d 8.&.e i q.j &.F.*.w.i =.f t.e.m n.L.<XpXY.aXaXD.#Xl.k.{ L.[ u.U.B.d t.D.u.B.$XQ.&XF.P J ",
"d.$XH.E.*..X.X' p.n : Z F ; : ` ' H.& , , < , , O 5 d - + @ 2 O O .   I * $ & = r : 6 ; 7.: $ > > ; * % s &Xd + + O 4 & % - s d ",
"=Xm.oX*X+XgXVXBXcXVXvXVXu VXUXOX+XXXgXXXgX: 6.R s.s.7.P.>.9.y G.D.P.Y.xXtXV.B.B.V.W s.K.u.m 9.:.d.Q.E.xX%Xd.0.d.F.W.E.S.#XcXBXc.",
"=X`.<XVXOX8XAXzX7XlXb.hXOX3X3XzXhXI.:XM.I.Y i.j.{ { h.~ [ ^ ^ j.(.;X_.#.6X>Xk.[ L.l./ 3.Y Y A f.I.K.oX$XuXfXP.d.$X*XY.P.fXNXI.].",
"t y J xXS.7.J.%XS.C.>.f.fX` 6.J.u K y.#X7.vXT.u.u.u.Q d.d.D.xXR 7.d.8.%.%.s G S.d K F G ,.%.m R 9.9.7.F.e.y.:.e.*.I u :.0.0.e.d.",
"iXtXpXiX2X3XAXgXc.n.<X:X3XZXkXkXfXI.<X<XM.b.hX'.tXuXW Y.0.*.K *.&XK &.j d.D.T.Q fXuXK.pXtXu.U W g.tXK.d.Q Y f.T.T.K.l.f./ / d.n ",
"jXhXlXZXlXlXlX,XN.lX3X,XzX-X).'.sX].].>XlXsXhXkX2XuXd.J y 5.$.$.j K t J K.[ } M.v.^ [ l.L.W n Y > g.l.3.W / ( i.z.z.z.z.( z.l.B ",
"} x.<XP.d.d.Q Q oXvX$XaXVX%XvXvX#XE f.D.Q.cXH.Q : d.#XF.E.g g 5.8.r.W.xXG >.T.R B.9.G.B.e.w.w.7 r.8.,.e.,.9.G :.B.y S 8 S % e.R ",
"j.K.tX7.d i i e K K I F *.&.5.=.i a K S.e.~.$.h j $.&.t K ,.G ,.-.%.%.S.G 2 a i w.7 G ;.a l 2 4 5 w.t.=.$.&.*.w.@X=.8.;.$.$.t.L ",
"z. .j.d.= t f f t u t 7 F a f , @ $.8.9.E.E.F 9 1 p 9 a <.V.U s.9.D.E d -.W.5.l L L <.t.f =.8.t.*.r.3 a e.*.K L P *.8.P K K I S ",
"9.B.9.*.t.t.r.l z < q.=.d.y.f ^.e.S.E.#XH.&X&Xy.t.-.,.B.D.#X9.B.W.r.r.@XDX&Xr.w.E.xXJ.g l k q.5.&X8.B.t.e.:.P S.B.e.F l 1.p k 1.",
">.T.p.f.s.D.n.P.y F.E.H.r.y.W.t.y.P %X%X$X%XB.Y.$XtXm L.I.k.{.k.'.1XoXM ' J.x.uX7.7.6.G.7 GXGXGXxXe.F.W.%XV.s.>.<.r.4 X O DXy.@X",
"m = I J >.s.3.3.R 7 s ;.=.=.l a F.J D.f.K.T W a.n.L.C z.n.f.l.T.!.$XT.D ,.L s.D Q W s.E J %Xe.8.&.5 9 4 K *.F + 7 m E 6.P ' u./ ",
"g./.! _ #.+.+.O.a.p.Q M < 4 h w.5.E.>.>.3.H L.u.$ a.T.K.[.b.) (.'.^ [ Z * M T ` u.W y J 6.r.t.5.z @Xx q.t.5.8.t a $.s <.F L d.Z ",
"vXHXW.S &XIXcX&XFX@XF.t.< =.E.t.W.FX@X~.~.S $XxXxXGXJX&X~.W.4 ^.1.1.0 HXW.;.~.$.vXJXFX&XIXIX&XxXK j F.KXKXFXJXGXxXe.#XE.H.%X@X-.",
"y L J N A T A Y Y c _ ! *.K 3 4 a 4 h k 2 y K.9.w.g < , h s.B : > : F *.3 y 6.7.oXuXvXGXVXvX'.tXQ x.p.E f.P.7.R p.x.gXgX3X[ <X:X",
"E s.W Y (  .Q E >.3.u.[ 8.8.4 l l *.7.d d p.'.9.d f z p 9 d <.9.G L $.h a F B.Y.T.aXcXxX&XQ.d.$X7.9.9.Y.D.Y.Y.9.d.p.$XfXvXP.fX<X",
"N q = Q.G >.J y L L d *.tXs.9.t.h & R = & IXH :.e.g j &.t.t.%Xy m 6 4 - d S D aXU D D.V.L Q.C.<.cXB.G.Q.G.y 9.G.Q.GX9.9.E L * m ",
"j.X.+.+._ _ ! C Y c > v ~ A V U J B { <X[ A ..[ T T I.fXBXvXT.I.pXuXkXj.[ ^ i.~ ~ ( i.i.~ Y U f.g.i.H B U V L.W W u.T.g.i.a.C z.",
"o. . .X.k. .~ c C j.Z.i.Y / W [ u.W n g.N W U Y T [ M.vXPXvXkX[.kXkXkXj.I.Y U g.l.i.a.[ ^ / R Q W [ / U U N l.f.f.u.Z.f.a.T.C z.",
": - % % . O + O p.* : e O 3 @ O + :.. . . O i + & N E % # % 3 = y 7 + e.+ a l < O @ % y D.% @ 3 = y S 6 3 xX% % % t 7 3 % t !.& ",
"h. .]./.bX| b.9X@.=X0X X#Xu e K d t Q W T W D C ~ ) _  .C ).W L 5 i j f p h R k.n.p.7.Q / i.` i.) ) )  .z.4.h. .{ B  . . .i.( z.",
"v.I.3XXXZXXXiX:X5X-XmX} S.4 E.*.w.r.E.6.J B.3 L J N s.V.M K.Q.k p p q.z 1 p *.f.f.S.B.B.>.u.aXpX/ ( m.i.i.N i.[ W ; g./ / R Y B ",
"o & P.Q + w M : * A A [ x.. $ $ $ o * r : J o   o o & . . * 8 + O O   O , O 6 J r + @ 7 = o * J y % S M ; o o & = *.+ % % % 3 O ",
"J R D t S D *.6 T 2XhX7XhX7X7XzXXX:Xk.b.j.yX{ h.j.I.Y a.a.z.{ Y Y U f.u.D >.Q Q J F , g ,.y y F $.8.$.y 7 7 2 4 K 4 $.4 s F > Y ",
"M m t f i 0 7 S f.>X9X,X9X:X9X,XM.v.{.z.i.dXz.(.k.<X} n.h.C ! ! .. .s.W R >.R S J F 3 + K S ,.s h i < S %.F 0 5 = @ O 2 5 L H ~ ",
"6 r . e < @ 4 t d.Q } n p.p.W M N f.m r 8 : V A B a.a.W Y : B V T n.>.:.6 t 3 - * y F 9.t 3 s 4 4 5 i r J :.6 7 3 d j &.-.S S d ",
": A ` u < < a 2 2 d 0.6 u - K d D J :.7.u.Z.( f./ g.i.Y / n oX$XP.x.T.oXY.%XD s.W D N D m E :.7 J J U D J J Z W M 9.D.: 6.7.s.G ",
"U { N I 4 i p < d I d.` U m d.>.T U 3.H h. .) ( h.(.sX .k.f.n.iXkXI.dXpXaXT.l.~ ~ ( ( z.i.3.Z.N 3./ [ U 3.T Q R R J s.D >.: Q W "
};
