/* XPM */
static char *e262537c3f67472086ad42d264a20720d5usjiQhEd6IMf39[] = {
/* columns rows colors chars-per-pixel */
"64 64 254 2 ",
"   c #31281F",
".  c #352D27",
"X  c #39342C",
"o  c #2B2D34",
"O  c #2D3438",
"+  c #343334",
"@  c #3B3534",
"#  c #34353B",
"$  c #3C3C3B",
"%  c #383A37",
"&  c #2B2B2C",
"*  c #1A2023",
"=  c #48372B",
"-  c #573B29",
";  c #433C34",
":  c #4B3C34",
">  c #433D3B",
",  c #483936",
"<  c #553E34",
"1  c #4B2F2B",
"2  c #623E2E",
"3  c #4C2F16",
"4  c #3E423F",
"5  c #43423C",
"6  c #4C433C",
"7  c #4A4538",
"8  c #554235",
"9  c #5B4434",
"0  c #54443B",
"q  c #5B453B",
"w  c #554B3D",
"e  c #5B4B3D",
"r  c #594935",
"t  c #5C452E",
"y  c #624C3C",
"u  c #674A36",
"i  c #69533C",
"p  c #74583D",
"a  c #6D4B30",
"s  c #3C3E43",
"d  c #363B45",
"f  c #2D3341",
"g  c #443A42",
"h  c #3C4345",
"j  c #37474B",
"k  c #444243",
"l  c #4C4442",
"z  c #4B4A44",
"x  c #43454B",
"c  c #4C4B4C",
"v  c #454B4C",
"b  c #534641",
"n  c #534B43",
"m  c #5C4C44",
"M  c #544D4B",
"N  c #5A4D4A",
"B  c #5A4644",
"V  c #4D524B",
"C  c #5B5245",
"Z  c #54534C",
"A  c #5C534C",
"S  c #5C594D",
"D  c #545247",
"F  c #4C4D53",
"G  c #444952",
"H  c #564D54",
"J  c #4C5255",
"K  c #4C5658",
"L  c #535353",
"P  c #5C5453",
"I  c #5C5B54",
"U  c #535B5C",
"Y  c #5C5C5B",
"T  c #575659",
"R  c #624C44",
"E  c #644D48",
"W  c #645344",
"Q  c #6B5445",
"!  c #63544B",
"~  c #6C554B",
"^  c #655B4D",
"/  c #6B5B4C",
"(  c #675944",
")  c #745B43",
"_  c #735C4C",
"`  c #775B4A",
"'  c #645B54",
"]  c #6B5C53",
"[  c #645D5A",
"{  c #6A5E5B",
"}  c #665552",
"|  c #725E53",
" . c #735E5B",
".. c #795B50",
"X. c #734F41",
"o. c #5D625C",
"O. c #59635A",
"+. c #7C644D",
"@. c #786349",
"#. c #6B6256",
"$. c #64635C",
"%. c #6C635C",
"&. c #6C6A5D",
"*. c #666456",
"=. c #736354",
"-. c #7B6453",
";. c #73645B",
":. c #7B655A",
">. c #736A5C",
",. c #7B6B5C",
"<. c #7A6B55",
"1. c #78735D",
"2. c #6D624F",
"3. c #5B5C62",
"4. c #545D64",
"5. c #475768",
"6. c #635D63",
"7. c #6A5E66",
"8. c #715F6F",
"9. c #5B6365",
"0. c #5A6568",
"q. c #596A74",
"w. c #546970",
"e. c #636363",
"r. c #6C6563",
"t. c #646B65",
"y. c #6C6B64",
"u. c #64656A",
"i. c #6B666C",
"p. c #646B6B",
"a. c #6B6C6B",
"s. c #736563",
"d. c #736C64",
"f. c #7B6B63",
"g. c #736D6A",
"h. c #796D6A",
"j. c #766668",
"k. c #6D726C",
"l. c #65706E",
"z. c #747265",
"x. c #7B7365",
"c. c #73726C",
"v. c #7A746C",
"b. c #7C7B6D",
"n. c #777A6C",
"m. c #656D71",
"M. c #6B6D72",
"N. c #696C77",
"B. c #736C73",
"V. c #786B73",
"C. c #6C7373",
"Z. c #6D757A",
"A. c #6E7A7B",
"S. c #677477",
"D. c #737473",
"F. c #7C7573",
"G. c #757974",
"H. c #7C7A74",
"J. c #73757B",
"K. c #747C7C",
"L. c #7C7C7C",
"P. c #79767C",
"I. c #885F3F",
"U. c #835E4B",
"Y. c #86674A",
"T. c #826B54",
"R. c #856A58",
"E. c #84725D",
"W. c #8B725A",
"Q. c #94775A",
"!. c #916E54",
"~. c #836C67",
"^. c #847364",
"/. c #84746B",
"(. c #837C6C",
"). c #8B7C6C",
"_. c #8A7766",
"`. c #967B67",
"'. c #837C74",
"]. c #837D7A",
"[. c #887976",
"{. c #926965",
"}. c #7D827C",
"|. c #798279",
" X c #89806E",
".X c #998368",
"XX c #848175",
"oX c #8B8274",
"OX c #83827C",
"+X c #8B837B",
"@X c #898A7C",
"#X c #948475",
"$X c #98897B",
"%X c #9A927D",
"&X c #A38C76",
"*X c #A58B6F",
"=X c #6B7B84",
"-X c #747D83",
";X c #7B7E82",
":X c #767B8A",
">X c #5F7580",
",X c #837E84",
"<X c #927E89",
"1X c #7C8384",
"2X c #7C858A",
"3X c #7E8A8C",
"4X c #758387",
"5X c #7A8992",
"6X c #7F9398",
"7X c #708A89",
"8X c #848483",
"9X c #8C8583",
"0X c #858A85",
"qX c #8B8B85",
"wX c #84858A",
"eX c #848B8C",
"rX c #8B8C8B",
"tX c #8A868B",
"yX c #938C84",
"uX c #938D8A",
"iX c #958783",
"pX c #8D928D",
"aX c #85928B",
"sX c #95938B",
"dX c #9A958B",
"fX c #9A9788",
"gX c #848C93",
"hX c #8B8E92",
"jX c #878A99",
"kX c #859294",
"lX c #8B9394",
"zX c #8B949A",
"xX c #8A989A",
"cX c #939493",
"vX c #9C9B94",
"bX c #939B9C",
"nX c #9B9C9C",
"mX c #959795",
"MX c #928D96",
"NX c #A59887",
"BX c #A39C95",
"VX c #A08E86",
"CX c #98A19B",
"ZX c #A6A399",
"AX c #B1A592",
"SX c #8D9AA3",
"DX c #969CA4",
"FX c #8F9EB1",
"GX c #99A3A8",
"HX c #8FA1AD",
"JX c #A4A8A9",
"KX c #ACB2B2",
"LX c #C8BBA5",
"PX c #B6C0C2",
/* pixels */
"$.S e.e.,..._ ,.iXsX1XDXsXL.g.c.OXqX,Xu.e.l ;.I V v S.5XSX0X].yX/.<.} ~ q f.0X7XS P E q a.4XS.M.u.Z.u.:X5X:X5X:X:X4X5X4XSXjXFXFX",
"$.Z c D.N ~ T.T.-.;.A ' ,./ W q W ' [ L.U c P y.OXvXcXcXlXH.r.v.d.#.A m :.^ G.kXc.$.;.Q v.A.m.m.3.F M.G d u.5XgXzXSX5Xw.5.5.=X=X",
"v.H.rXL.P : 8 =.=   0 b W ~ ! W 8 7 6 8X2XA.2XP.i.g.F.h.h.v.h.OXqX8X'.b.x.(.'.qX0X0X$X#XfXK.m.3.F F F M.M.3.4.Z.N.Z.S.w.w.q.4.w.",
"l M l P v.yXY k L Y T Z z z Y M Z ; ; L.2Xq.U T e.Y r.{ r.[ F.g.g.L.OX$.OXP $.e.t.p.c.x.yXlXwXwX,XJ.s s 3.3.s x # K :X>Xq.w.S.=X",
"P 0 m ' #.y.2X2XeXrX0X8XqXOXuXOXuX].F.K.wXG F h h J F F F 6.k Y [ r.K.lX2X1XL.C.$.9.k.&.G.m.-X;X;XJ.0.G 4.:X2X2X3XS.xX=Xq.w.4.K ",
"P } ! C d.].a.Y c.#.;.b ^ *.x.: m N P c F J.s O f O d h # s x c c P |.kX:X3XC.L.h.8XpXsXeXeXm.J u.Z.0.A.jX5XZ.q.-X5X4Xw.q.G J S.",
"6.u.$.y.y.o.$.*.f.q ! ] / =.^.W W A $.t.S.m.j d G x x k $ F F T T P.K.xX3XhXBXx.| f./.P P r.v.8XC.2X1XP.;XZ.1XC.DXS.hXtXhXm.-X2X",
"p.u.e.$.k.-X}.$.(.^ ' #. .b > D &.n.aX}.aXp.T G x s F H H x x h F J 4.gXzX'./.` T.-.~ E ] >.v.D D.rXL.7.i.i.6.i.g T 3.i.p.m.3.m.",
"lXL.8XuXL.gXeXH.>.+X+Xc.K.K.J.rXd.;. .;.P ;XK.K.C.v $.c Y J J U K 9.-X9.]./.y U.W.` :.R e : = ! s.BXF.F e.u.D.D.u.3.6.6.u.A.F P.",
"S P A s.e.3X+X] ! :.^.yXpX3Xq.e.N ! P D t.l.7X}.t.aX0Xc.y.K G u.9.;XDXL./._...R.R.R.~ ! W e W R ,.f.F.0.U p.C.C.K i.i.u.M.3X;Xm.",
"^ ! R R N eXf.y < R.-.:. .uX-XK O.o.t.g.r.{ g.0 b n A v.[ DXZ.U K.kXrXg.W 9 Q Q ` ~ E  .m W Q Q ..B S K.8X].8X0X1XeXeXJ.eXkX1X3X",
"/ W y 6 Z OX) ` @.y = = 9 $XK.5X=Xe.7 ;.n b m B 0 0 E R f.| $.k.k.g.h.6 m W = 8 t - < _ / :.R.~ W ; Z y.NX:.^.XXsXXXF.Y Y $.Y d.",
"L.s.;.v.a.x.) p +.R.e =.q f.mX6X6X6.0 m R } R 0 0 0 R q < 1 n c.D.$.m m q 9 ` +.@.t - u 9 Q W 9 w N eX=._.iX/ ;.XXXXg.c.a.OXr.! ",
"zXbXpX;XK.=.` W.R.~ =.] -.f.G.xXSXM } B E ~ ~ m E ! 8 q y y n t.D.{ ! 1 1 - 2 - a - 3 t - y q 8 =.].8XU.`.1.>.C q C I r.P I 5 X ",
"rX5XgXkXp._ ` W -.=.Q _ Q f.c kX4Xj.E B E q E ! } ! < R q R ' eXt.h.] ] < u u a p Y.a u u 9 _.=.0 d.C.X.u W >./ 0 ; ' P Z @ P 6 ",
"c.A.DX5XM.i +.=.- i i +.q f.[ kXu.b 0 : 0 B B ! ~ R ! ~ 1 < r.kXp.y.$.'.C =.` W.t 3 - y y y 8 ~ #Xr.J.: ;.,.=./ ).0 0 n ; ; > b ",
"x v p.4XU y i i t ) p T._ ! qXkXP.6 b , ! { ! b { ! | q R = H.bX1Xa.L t.H.' : W r W R m : = = 0 w M pX1X5 %.q 2.w ] n X w 7 l 6 ",
"c v 0.C.T ^ 8 i / i +.i E.w O.eXgXm.a.y.Z T 9.Y V e.I g.[ rXY z z @ v Z.hXkX2X9.0.C.m.J t.Y c.M z & 8XkX4XA.p.$.t.v Z Z D.9.c.OX",
"|.qX0XwXL.$.$.z.@Xb.z.(.'.].L.kXSXhXB.a.c.rX;XK.eXA.1XrXD.$ @ + @ z # # 9.4.9.p.S.wXeXOXoXyXrXL.rXL.K.kX2X-XhXeXmXOXb.c.qXK.C.3X",
"5 6 z h J 1XG.&.y.*.*.&.A n ; Z k.eX3.y.OXT 3.hXkXkXK K # % $ k k k # # s h 9.m.=XzXL.N / ~ e f.b.&.[.}.G.P I D ' z.>.C g.8X6XSX",
"> 4 5 $ k zX@XC w / W ( / ,.W (.d.G.}.> . [ i.i.u.kXU d # o + + @ + # o o o o J hXzXe.A 8 - - 9 q r . P ' '.C e 8 >.NX>.d.H.4X=X",
"s $ % z k m.8X].&.&.' ; 5 6 N e.J l.I w X , ' i.e.e.;Xs s J s s + > # s # + h 3.v.}.1Xy.! < R ! n Z 5 K.4Xp.$ 5 F.b e e #.^ k.U ",
"cXmX8Xe.h p.Y XXz.&.d.x.$.[ { v.r.K.9.t.6 $.y.d.d.[ G.$ J h h # O O o k c @ L K v Y L.vXyX$.% Y OXoXoXlXlXeXeX1Xt.7 ' S y.' K J ",
"m ~ / +Xz.I ; *.' f.] f.r.[ , > z 2XxX0XXXz % n ; 5 $.F x s F 3.x x # * * H.c.J.p.Y r.M n e.p.I ] W -.,.,.#.z.&.XXx.@X$.[ oXF.y.",
"@ % $ z D.C.. X , @ n d.I z g.rXkXrXL ' ] '.c.z T p.V p.s T u.3.M.3.v v + 5 ' Y $.[ h.! m r.G.n ] / < i @.@.W y ^.1.x.$.' ' ~ X.",
"sXeXeXbXxXDX8XOXG.G.G.|.dXdXJXhXbX8X! R | s.s.C.J K p.l.e.h h K h p.D.t.Y P @ ] d.d.b ! C Y |.t.D w . . X 7 #.! ;.x.y.c.> , -.+.",
"/ y 9 9 < R n r.Y cX0Xk.$.y.d.a.y.qXA e q R , p.U v K.L.8XH.G.}.c.OXg.].3.$ n 6 6 X ; ' ' D.lXpXvXsXx.t.C.5 5 $.$.$.Y ;XM l . w ",
"u : : < < : 1 E ~ ! dX%.' #.] f.f.+XD = = < R J.eXe.e.a.; 0 0 0 m m } { H.$ Z n w Z v.qXcXvXmXZXBX[.$XD.rXz *.b.d.Y M.zXD.B.F.r.",
"8 0 8 : b , , < ` f.qX].f.C ] *.d.qXa.[. .E m a.tXi.P } 8 8 e m ] ;.b !  .yX% j v JXuXuX9XJ.SXP.uXv.$XvXvXH.o.m.6XgXnXH.nXGXzX;X",
"< m 0 : : l c 7 r n D.I $.g.r.L D.tX9X; ; , b Y e.P { N W ! | #.{ ' ;.f.:.f.}.C.G % l n a.a.e.a.[ dX[ c.y.ZXcXA.0.tXOXr.H.a.J.tX",
"l , : : X ; 5 C e y.].#XoX+XyXsX].[.;.XXn..   L c M %.] ] | ] ;.[.[.[.,._.;.yXeX2XV e.Z z M P s.6.c k $.5 vXvXlXJ e.c.H.H.$.c.yX",
"@ 6 l > @ . $ : 0 P F...) T.=._ _ R R e @Xy.k k $ ' 6 ] :.! ! 0 ! m ;.B ~ A Z bXGXo.$.; > l h.[ P k k [ N dXsXZ c c.G.a.H.'.OXh.",
"> l > $ + + $ z ; C.G.2.-.i _ =.e e 8 9 Q { -XB.l &.m !  .] f.! { b M +X$XBXhXkXwXG.d.[ A [ r.h.$.[ b P $.[.' F.a.h A.2XL.v.sXuX",
"$ $ @ % o & % V G.eX1XO.] W e = m w e u 2 | rX1X$ b } < } m = . , N ].[.9XF.wXxXp.F.&.h.s.A [ s.N n d.l ' ! /.+XF.v J 9.L.+Xc.9X",
"h % V % % J |.K.n.G.4X6XN 0 6 0 0 : 7 W y ! Y kXU I b   . : } r.[ { N V.,XtXhXmXK.D.{ ;.[.[ > M l I . [ yX^.#XyXZX4.& $ Y OX$.f.",
"}.8XsXOXG.rXbXK.U k.C.eXy.$.'.oX*.v.F.%.^ T bXGXgXG.v.g.h.l T G.a.g.H V.;XMXMXjXSXtXP 6.tX8XG.T & $ z A m m d.Z e.2X-Xv h $ 4 > ",
"z Z 7 D Z I Y $.x.(.,._.x. X,.E.E._. X=.$XBXy.K.nXmXmXyXsXvXmXCXcXsXcXsXnXnXhXK.lXnXKXXXY C.K.3X1XK p.yX'.F.sXrXzXSXwXhXrX1XcXmX",
"% 0 6 w 7 w w = ] 2.T.@./ <.<.W.i _.T.i W (.+Xd.c.H.n : : b vXvXA #.o.Z t.o.}.e.|.@X*.}.|.aX4XGXKXbXA.d.Z v J 8XrXbXv.m : g.~.~.",
"D ] =./ 0 ^ >.z y.z 7 =.{ d.] m ^ / =.(.|.}.eXiXoX(.x.%X=.).(.(.).;.G.C.Z.wX-XN.D.y.8XA.GXGXPXJXKXGXeX8XbXzXeXH.v.uX,.` +.0 %X=.",
"a.a.8X8XL.@XH.L.zX4X-X-XeXxXbXJXKXKX9X+XyXyXc.( 9 < _ Q `.) W.T.T.) hXSXu.wXcXDXMXJXbXGXSXGXGX8XmXkX5Xd C.K.a.v.r.K.vXuXuX8XD.0X",
"3.3.M.a.wXe.[ l lXGX:XgX0.J.J.JXGXKXO.o.y.c.L 7 ! m $.D C >.f.f.{ '.gX=Xu.T ;XJ.wXtXGXGXJX4X-XL.1XxXxXrXc.H.$.$.$.Y $.z n z y.8X",
"u.v F u.L.Y P l M.p.l.9.M.e.i.u.wXGX1XrXG.J.K.G.g.wX4XaXOXuXF.D.wXDXSX2X9.L hXP.8XtXL.DXzX1XK.C.K.xXbXS ' *.d.j.9Xg.].A ; C 7 n ",
"a.L.G.L.D.T P @ 6.K.L.C.;Xv v lXcXwXJ.i.7.F 6.V.8.u.gXL.[.,./.{ s.F.2XK.M.c ;X& @ 8Xv + + & ;XK.Z.1XK.( ,.;.d.j.].[ L.e.S =.A 6 ",
"[.mXL.c.$.sXrXcXA.J F Y v U J U -XgXT 7.b T T H B.T nXF./.-.R.;.[.[.0.eXG.o.k # % @ @ l M P M L eXwXZ >.' *.r.r.r.F.L.1Xk 6 6 b ",
":.'.ZXfX(.$XeXbXGXzXZ.G.C.O.9.K 4XC.Y M P e.i.;XB.D.cX+X~.:.f.~.j.<XbX* a.9.+ . l P P l ].h.r.Y P.cXh.{ h.g.a.e.y.G.3XkXo.S N A ",
"+X).,.x.).#Xx.yXv.[.yXBX%X@XrXa.a.Y Y z Y a.L.i.r.,X[.F.F.h.d.~.R.9XeX2Xh O l B i.T M c r.B.r.d.[ OX^ { g.L.L.wX;X9.U G.e.L V I ",
") :./ y =.=.-.E.i y .X+.i Q W b ' J 4.m.eXqXrXOXy.$.b.XX*.I e.x.[.cXZ.zX|.L.g.g.8XwXJ 3.p.J.H.c.-X=XU }.OXa.A.l.C.L.a.OXa.I ' $.",
"Y.Q y ` ` y | W _ 9 -.<.) _.=.6 wX3X}.vXyX#X$X#X#XNXNXLXLXvX|.&.d.L.rXZXqXsXyXyX+XdXXXdXBXvXNX%X|.3XK $.M L L o.Y [ r.H.].c v.' ",
"I.` ` -.-._ ~.;.! e #.] %.f.f.z m.eX>.%XE..XY.T.T.&X`.+.&XAXJXsXx.&.>.fX#X$X#XNXAX&X&X`..X.XY..X(.mXt.'.[.F.].g.@ ' F.F.a.L.F.e.",
"a 9 R.T.R.).#X^./ e / / { W 9 (.z.OXx.(.^.E.) W.W.W.Y.!.*XNXb.ZX).$X%X&X.X.XQ..X X^..X.X.XQ.!.T.F.=X=X$.v.H.H.F.BX9X9X8XlXpXJ.bX",
"x.z.1.^.1. X<.T.W.= : D Z ' AX#.z.8XA.p.qX#Xi T.@.+.E./ %XNXb.&.).&X_.W.Q.W.<.fXoX' 8 W W.=.,.[.J.=XSXeXZXNXsXeX5XL.wXa.9.-XSXS.",
"qXOXqXyXsX'.H.c.rXmXhXzXzXeX8XlXlXDXqXpX'.NX*X(.x.1.&.sXc.T H.H.$.y.*.>._.E.^ S %.d.&.x.(.oX XH.1XlXaX}.b.1.1.l.=Xq.=X4X5X5XkXHX",
"e.7.i.[ D.vXsXH.A v./.f.] :.#X=.^ ] d.$X&.%XAXK.|.|.fX@XpXrXMX,XJ.GXbXnXqXfXfXdXvXyXdXvXBXNXNX~.! | ).AX^.T.,.8XO.D.qXvXH.H.J.K.",
"c [ r.n $.&.dXD ] #Xi u +.T.@.@.<.x.yXnXD.Z n.vXsX9X'.' [ ] s.j.iXJXnXmXOXz.b.XX'.'.ZXZXz.] m E B E y ] $X/.v.eXm.m / ^ W ! 7 h.",
"c Z ' 6 z.d.p.GXbXL.iXiXyX[.OXG.0.u.I D.qXOX>./.,.^.| ! ] / ] W :.#X_._.dXfX$X.XT.i ) / $XfXqXsXdXqX@XOXXXc.C.xX3XK.-X0.9.m.x.XX",
"L 4 L [ N v.{ #.b.[.`.{.{.R.`.f.].v.r.' f._.Q.<.@.( =.^ %.s.A *.#X_.Q.Q.`.@.) T.Y.Y.a ) i p u ` ` ` +.Q `.&X[.dX9XqXF.H.a.e.G.p.",
"# X Z z y.P $.A '.d.qXy.n d.OXeXlXgXwXr.d.=.,.y =.=.-.E.T.T.<.E.$XE.u `.) +.T.R.W.W.Y.Y.W.!.p Y.Y.p U.Y.*XW.#X(.AX$X&X].GXeXB.B.",
"@ 6 b %.l P g.#.; l $.OXY OXqX0XnXL.JX].yXoX#.e e W / =.W / ^ m #.>.) `.`.W.R.Q.+.p Q.Q.`.@..XY.W.+.Q.$X_.,.^ XX&.@XNXKXeXG.i.6.",
"[.f.f.%.$.[ 5 ; N ' &.9XeXL.G.Y y.OX'.yXOXd.H.x.sXv.D w d.D d.$.H.&.XXz.XXXXXXz.( e r e e W ( ^ / 1.2.>.%.S y.c.}.8X(.H.hX'.i.B.",
"[ iXs.N n P > ;.} } $.+XqXc.].c.$.d.'.yX].9X' n $.v.b.OXvXNXNXNXAXfX+XqXOXqXvXqX+XpXCX0X9Xh.r.h.v.F.h.v.y.d.g.g.c.rX*.c.;X/.B.B.",
"a.' D A P g.s.s.{ j.'.]._.;.m ' '.c.y.D ' %.m ! A h.sX|.*.Y.Y.) +.Y.`.`.-.-._ / ' 9XC.z 0 0 6 } n A ' s.A A { s.g.pXx.8X,XV.6.6.",
"5XG.qXOXZ k [ r.r.r.g.v.! w D r.H.a.}.c.Z k I M h.H.b.sXfXW.@.p @.+.+.` ( <.<.R.).'.y.m y < w ] m 0 A { ;./. .} m ' sXmXtXj.6.6.",
"FX9.L.lX;XeX1XbXzXbX0XuXH.OXC.K.1XmXk.e.eXK.A.9X9XdXyXF.'.oXvX'._./.>.R pXOXkX[.D dXXXS ;.x.' ! : n X l A C ] /.;.d.H.bXcXg.g.P ",
"DXhXkXJ.9.u.eXKXJXbXD.F.Y c Y p.U Y [ z Y C.C.E E E m | / R ].;.R.:.&.~.mXrXO.B 0 BXBXsXb.I n ' b > Z Y y.S &.A 6 N y.1X8Xj.P 6."
};
